<svg width="612" height="943" viewBox="0 0 612 943" fill="none" xmlns="http://www.w3.org/2000/svg">
<path opacity="0.1" d="M342.5 471.5C367 503 323.315 539 301.5 539C279.685 539 262 508.779 262 471.5C262 434.221 279.685 404 301.5 404C323.315 404 318 440 342.5 471.5Z" stroke="white" stroke-width="5"/>
<path opacity="0.1" d="M365.27 471.5C404.917 522.6 334.224 581 298.921 581C263.619 581 235 531.975 235 471.5C235 411.025 263.619 362 298.921 362C334.224 362 325.623 420.4 365.27 471.5Z" stroke="white" stroke-width="5"/>
<path opacity="0.1" d="M396.992 471.5C457.859 550.133 349.33 640 295.133 640C240.935 640 197 564.56 197 471.5C197 378.44 240.935 303 295.133 303C349.33 303 336.125 392.867 396.992 471.5Z" stroke="white" stroke-width="5"/>
<path opacity="0.1" d="M434.236 466.5C524.699 583.4 363.398 717 282.849 717C202.299 717 137 604.847 137 466.5C137 328.153 202.299 216 282.849 216C363.398 216 343.773 349.6 434.236 466.5Z" stroke="white" stroke-width="5"/>
<path opacity="0.1" d="M488.819 471.5C611.111 629.467 393.057 810 284.166 810C175.274 810 87 658.448 87 471.5C87 284.552 175.274 133 284.166 133C393.057 133 366.526 313.533 488.819 471.5Z" stroke="white" stroke-width="5"/>
<path opacity="0.1" d="M558.941 471.5C728.14 690.133 426.449 940 275.791 940C125.133 940 3 730.245 3 471.5C3 212.755 125.133 3 275.791 3C426.449 3 389.741 252.867 558.941 471.5Z" stroke="white" stroke-width="5"/>
<path opacity="0.1" d="M327.704 471.5C342.223 490.4 316.336 512 303.408 512C290.48 512 280 493.868 280 471.5C280 449.132 290.48 431 303.408 431C316.336 431 313.186 452.6 327.704 471.5Z" stroke="white" stroke-width="5"/>
</svg>
